<?xml version="1.0" standalone="no"?>
<!DOCTYPE svg PUBLIC "-//W3C//DTD SVG 20010904//EN"
 "http://www.w3.org/TR/2001/REC-SVG-20010904/DTD/svg10.dtd">
<svg version="1.0" xmlns="http://www.w3.org/2000/svg"
 width="471.000000pt" height="251.000000pt" viewBox="0 0 471.000000 251.000000"
 preserveAspectRatio="xMidYMid meet">

<g transform="translate(0.000000,251.000000) scale(0.100000,-0.100000)"
fill="#000000" stroke="none">
<path d="M0 1255 l0 -1255 941 2 942 3 108 185 c59 102 108 188 109 193 0 4
-34 7 -75 7 -41 0 -75 3 -75 7 0 3 58 120 130 260 l129 253 -27 14 c-48 25
-118 109 -141 169 -46 125 -18 252 78 348 94 94 224 124 341 80 l51 -19 39 79
40 79 -65 0 c-36 0 -65 2 -65 4 0 3 270 712 315 829 7 16 -63 17 -1384 17
l-1391 0 0 -1255z m1074 -551 c33 -13 5 -29 -44 -26 -42 3 -53 0 -75 -22 -19
-20 -25 -35 -25 -71 0 -61 32 -95 90 -95 l40 0 0 40 c0 36 -2 40 -25 40 -14 0
-25 5 -25 10 0 6 20 10 45 10 l46 0 -3 -57 c-3 -53 -5 -57 -33 -65 -47 -13
-110 0 -138 28 -53 53 -40 154 25 194 32 19 90 26 122 14z m101 -15 c0 -7 -8
-15 -17 -17 -18 -3 -25 18 -11 32 10 10 28 1 28 -15z m95 -24 c0 -20 5 -25 26
-25 31 0 28 -23 -4 -28 -20 -3 -22 -10 -22 -59 0 -46 3 -56 20 -60 24 -6 27
-33 4 -33 -42 0 -54 19 -54 85 0 51 -3 65 -15 65 -8 0 -15 7 -15 15 0 8 7 15
15 15 8 0 15 8 15 18 0 10 3 22 7 25 13 14 23 6 23 -18z m-92 -112 c-2 -70 -6
-88 -18 -88 -12 0 -16 18 -18 88 -3 82 -2 87 18 87 20 0 21 -5 18 -87z"/>
<path d="M3605 2063 c-193 -26 -363 -155 -436 -333 -31 -76 -33 -250 -3 -326
50 -125 148 -228 271 -286 84 -40 97 -36 101 27 l3 51 -39 -4 c-49 -5 -104 18
-128 54 -11 15 -36 45 -56 67 -21 22 -38 41 -38 43 0 2 14 4 32 4 23 0 40 -10
69 -40 46 -48 80 -63 125 -54 24 4 39 16 53 39 l20 34 -50 10 c-28 6 -62 17
-77 25 -100 52 -141 195 -88 300 17 34 23 58 19 84 -3 20 0 49 6 65 13 34 39
35 106 4 43 -20 60 -23 115 -17 36 4 97 4 135 0 60 -6 77 -3 120 17 28 12 62
23 77 23 23 0 28 -5 34 -36 3 -19 4 -51 1 -69 -3 -19 -1 -37 4 -41 19 -12 39
-78 39 -133 0 -85 -39 -158 -104 -192 -27 -15 -66 -30 -88 -33 -40 -6 -46 -14
-27 -33 7 -7 14 -60 18 -120 6 -105 7 -108 29 -106 37 5 126 50 181 94 67 53
133 147 162 229 31 87 31 219 1 302 -84 232 -339 384 -587 351z"/>
<path d="M2194 1298 c3 -18 11 -71 17 -118 6 -47 12 -87 14 -89 14 -13 41 23
93 123 45 89 55 116 42 116 -10 0 -33 -35 -65 -101 l-50 -101 -8 59 c-4 32
-10 77 -13 101 -3 28 -10 42 -20 42 -11 0 -14 -8 -10 -32z"/>
<path d="M2411 1304 c-30 -38 -27 -49 25 -99 38 -38 44 -47 35 -64 -13 -23
-43 -35 -71 -26 -26 8 -48 -4 -29 -16 24 -15 86 -10 107 9 12 9 24 29 28 44 6
27 -5 43 -64 90 -26 21 -27 31 -5 53 11 12 26 15 50 12 24 -4 33 -2 33 9 0 10
-12 14 -44 14 -36 0 -48 -5 -65 -26z"/>
<path d="M4052 673 c2 -90 7 -128 16 -131 6 -2 12 4 12 12 0 15 2 15 25 0 31
-20 79 -11 100 19 24 34 19 99 -8 125 -25 24 -76 29 -95 10 -9 -9 -12 0 -12
40 0 46 -3 52 -20 52 -20 0 -20 -5 -18 -127z m118 7 c39 -39 17 -110 -34 -110
-32 0 -46 19 -46 61 0 62 41 88 80 49z"/>
<path d="M3212 770 c-65 -40 -78 -141 -25 -194 28 -28 91 -41 138 -28 28 8 30
12 33 65 l3 57 -46 0 c-25 0 -45 -4 -45 -10 0 -5 11 -10 25 -10 23 0 25 -4 25
-40 l0 -40 -40 0 c-58 0 -90 34 -90 95 0 36 6 51 25 71 22 22 33 25 75 22 32
-2 51 1 54 9 12 29 -85 31 -132 3z"/>
<path d="M3407 784 c-14 -14 -7 -35 11 -32 9 2 17 10 17 17 0 16 -18 25 -28
15z"/>
<path d="M3612 668 c3 -101 6 -123 18 -123 11 0 16 14 18 58 l3 57 54 0 54 0
3 -57 c2 -44 7 -58 18 -58 12 0 15 22 18 123 2 114 1 123 -15 120 -14 -2 -19
-15 -21 -51 l-3 -47 -54 0 -54 0 -3 47 c-2 36 -7 49 -21 51 -16 3 -17 -6 -15
-120z"/>
<path d="M3507 763 c-4 -3 -7 -15 -7 -25 0 -10 -7 -18 -15 -18 -8 0 -15 -7
-15 -15 0 -8 7 -15 15 -15 12 0 15 -14 15 -65 0 -66 12 -85 54 -85 23 0 20 27
-4 33 -17 4 -20 14 -20 60 0 49 2 56 22 59 32 5 35 28 4 28 -21 0 -26 5 -26
25 0 24 -10 32 -23 18z"/>
<path d="M3402 633 c2 -70 6 -88 18 -88 12 0 16 18 18 88 3 82 2 87 -18 87
-20 0 -21 -5 -18 -87z"/>
<path d="M3850 650 c0 -57 4 -74 20 -90 23 -23 42 -25 72 -9 14 8 23 8 31 0
22 -22 27 -9 27 79 0 73 -3 90 -15 90 -12 0 -15 -14 -15 -63 0 -68 -10 -87
-47 -87 -30 0 -43 28 -43 94 0 43 -3 56 -15 56 -12 0 -15 -14 -15 -70z"/>
</g>
</svg>
