<?xml version="1.0" standalone="no"?>
<!DOCTYPE svg PUBLIC "-//W3C//DTD SVG 20010904//EN"
 "http://www.w3.org/TR/2001/REC-SVG-20010904/DTD/svg10.dtd">
<svg version="1.0" xmlns="http://www.w3.org/2000/svg"
 width="2133.000000pt" height="2133.000000pt" viewBox="0 0 2133.000000 2133.000000"
 preserveAspectRatio="xMidYMid meet">

<g transform="translate(0.000000,2133.000000) scale(0.100000,-0.100000)"
fill="#000000" stroke="none">
<path d="M3861 18659 c-338 -39 -681 -211 -887 -445 -154 -174 -245 -357 -291
-581 -17 -84 -18 -399 -18 -6908 l0 -6820 23 -102 c122 -553 526 -969 1072
-1104 l95 -24 6855 0 6855 0 96 27 c182 50 323 117 450 214 264 202 434 469
522 823 l22 86 3 6860 c2 5020 0 6881 -8 6939 -55 386 -299 724 -650 901 -144
72 -286 114 -460 135 -105 12 -13569 12 -13679 -1z m2990 -2689 c374 -76 654
-295 815 -634 179 -379 164 -867 -38 -1211 -179 -304 -463 -497 -823 -560
-132 -23 -367 -24 -495 -1 -509 90 -870 462 -956 984 -12 74 -15 139 -11 272
6 198 28 310 91 459 175 415 523 661 1011 715 84 9 309 -4 406 -24z m6929
-3375 c498 -70 922 -253 1267 -549 476 -407 784 -1024 897 -1796 52 -351 50
-250 53 -2662 l4 -2248 -1145 0 -1145 0 -4 2098 c-2 1580 -6 2117 -15 2177
-90 588 -286 918 -646 1085 -250 117 -608 133 -888 40 -263 -88 -479 -259
-645 -512 -128 -194 -190 -367 -212 -582 -8 -76 -11 -757 -11 -2208 l0 -2098
-1145 0 -1145 0 0 3560 0 3560 1145 0 1145 0 2 -495 3 -496 88 121 c388 530
792 822 1322 955 110 28 242 50 405 69 85 10 561 -3 670 -19z m-6160 -3695 l0
-3560 -1140 0 -1140 0 0 3560 0 3560 1140 0 1140 0 0 -3560z"/>
</g>
</svg>
