<?xml version="1.0" standalone="no"?>
<!DOCTYPE svg PUBLIC "-//W3C//DTD SVG 20010904//EN"
 "http://www.w3.org/TR/2001/REC-SVG-20010904/DTD/svg10.dtd">
<svg version="1.0" xmlns="http://www.w3.org/2000/svg"
 width="225.000000pt" height="225.000000pt" viewBox="0 0 225.000000 225.000000"
 preserveAspectRatio="xMidYMid meet">

<g transform="translate(0.000000,225.000000) scale(0.100000,-0.100000)"
fill="#000000" stroke="none">
<path d="M975 2239 c-229 -29 -448 -135 -621 -301 -110 -106 -172 -189 -234
-313 -157 -318 -157 -683 0 -1000 59 -119 113 -192 218 -298 382 -387 1013
-433 1451 -107 362 270 527 711 431 1150 -48 222 -151 402 -322 566 -250 239
-575 346 -923 303z m394 -175 c335 -85 608 -359 697 -699 22 -85 26 -121 26
-240 0 -119 -4 -155 -26 -240 -89 -342 -359 -612 -701 -701 -85 -22 -122 -26
-240 -26 -118 -1 -155 3 -235 25 -354 93 -615 353 -706 703 -22 83 -26 121
-26 239 -1 120 3 155 26 240 101 384 424 670 818 725 95 13 259 2 367 -26z"/>
<path d="M990 1929 c-438 -78 -739 -496 -669 -929 66 -411 439 -713 850 -687
384 25 698 308 758 687 65 405 -188 797 -589 910 -87 24 -265 34 -350 19z
m449 -420 l55 -31 50 16 c28 10 57 20 64 23 19 8 -2 -33 -36 -69 -28 -31 -17
-37 34 -18 43 17 41 3 -5 -44 -41 -41 -44 -50 -61 -142 -32 -176 -87 -283
-200 -387 -170 -158 -427 -190 -652 -81 -21 10 -38 21 -38 25 0 3 33 8 74 11
55 4 90 13 142 37 l69 33 -39 14 c-50 18 -103 58 -126 97 -22 36 -18 47 17 47
25 0 24 1 -14 29 -43 31 -77 73 -86 106 -3 11 -8 31 -12 44 -7 22 -6 23 34 16
l42 -7 -32 46 c-37 52 -49 130 -29 190 l12 36 61 -55 c92 -82 203 -136 316
-154 l51 -8 0 49 c0 86 44 152 125 189 61 28 119 24 184 -12z"/>
</g>
</svg>
